<svg width="23" height="22" viewBox="0 0 23 22" fill="none" xmlns="http://www.w3.org/2000/svg">
<path fill-rule="evenodd" clip-rule="evenodd" d="M11.0657 1.9804H11.0657C13.9312 1.9804 14.305 1.9804 15.4263 2.10418C16.3874 2.10418 16.8908 2.28605 17.2504 2.41596C17.3104 2.43761 17.3663 2.45782 17.4197 2.4755C17.4932 2.51202 17.564 2.54584 17.6325 2.57856L17.6325 2.57857C18.0284 2.76766 18.347 2.91987 18.6656 3.34193C19.0394 3.71326 19.2886 4.08458 19.5377 4.57968C19.5494 4.61448 19.5622 4.65144 19.5757 4.69069L19.5758 4.69086C19.7069 5.07043 19.9115 5.6628 19.9115 6.56008C19.9115 6.98877 19.93 7.30747 19.9527 7.69959C19.9889 8.32644 20.0361 9.14091 20.0361 10.8922C20.0361 13.739 20.0361 14.1104 19.9115 15.2243C19.9115 16.1792 19.7284 16.6793 19.5977 17.0366C19.5759 17.0961 19.5555 17.1517 19.5377 17.2048C19.501 17.2778 19.4669 17.3481 19.434 17.4162C19.2437 17.8094 19.0904 18.126 18.6656 18.4425C18.2918 18.8138 17.9181 19.0614 17.4197 19.3089C17.3846 19.3205 17.3474 19.3332 17.3078 19.3467L17.3078 19.3467C16.9257 19.477 16.3295 19.6803 15.4263 19.6803C14.9948 19.6803 14.674 19.6986 14.2793 19.7211L14.2793 19.7211H14.2793C13.6483 19.7572 12.8285 19.804 11.0657 19.804C8.20011 19.804 7.82634 19.804 6.70504 19.6803C5.74392 19.6803 5.24048 19.4984 4.88088 19.3685C4.82095 19.3468 4.76501 19.3266 4.71161 19.3089C4.63809 19.2724 4.56729 19.2386 4.4988 19.2059C4.10298 19.0168 3.78435 18.8646 3.46572 18.4425C3.09195 18.0712 2.84277 17.6999 2.59359 17.2048C2.5819 17.1699 2.56911 17.1329 2.55554 17.0936C2.42443 16.714 2.21983 16.1216 2.21983 15.2243C2.21983 14.7957 2.20138 14.477 2.17867 14.0848C2.14239 13.458 2.09524 12.6435 2.09524 10.8922C2.09524 8.04539 2.09524 7.67406 2.21983 6.56008C2.21983 5.60525 2.40289 5.10509 2.53366 4.74784C2.55545 4.6883 2.57579 4.63273 2.59359 4.57968C2.63035 4.50664 2.6644 4.4363 2.69733 4.36825C2.88766 3.97503 3.04088 3.65848 3.46572 3.34193C3.83949 2.9706 4.21325 2.72306 4.71161 2.4755C4.74669 2.46389 4.78395 2.45118 4.82352 2.4377C5.20558 2.30745 5.80185 2.10418 6.70504 2.10418C7.82633 1.9804 8.07552 1.9804 11.0656 1.9804H11.0657ZM11.0657 0C8.07552 0 7.70175 0 6.58045 0.123776C5.45915 0.123776 4.58702 0.371326 3.96407 0.618876C3.21654 0.866426 2.59359 1.23775 1.97065 1.85663C1.3477 2.4755 0.973932 3.09438 0.724753 3.83703C0.475574 4.57968 0.226396 5.32233 0.226396 6.43631C0.226396 6.85939 0.208425 7.17535 0.186133 7.56727C0.14973 8.20727 0.101807 9.04984 0.101807 10.8922C0.101807 13.8628 0.101807 14.2341 0.226396 15.3481C0.226396 16.4621 0.475574 17.3285 0.724753 17.9474C0.973932 18.6901 1.3477 19.3089 1.97065 19.9278C2.59359 20.5467 3.21654 20.918 3.96407 21.1656C4.71161 21.4131 5.45915 21.6607 6.58045 21.6607C7.00632 21.6607 7.32435 21.6785 7.71885 21.7007C8.36306 21.7368 9.21116 21.7844 11.0657 21.7844H11.0658C14.0558 21.7844 14.4296 21.7844 15.5509 21.6607C16.6722 21.6607 17.5443 21.4131 18.1673 21.1656C18.9148 20.918 19.5377 20.5467 20.1607 19.9278C20.7836 19.3089 21.1574 18.6901 21.4066 17.9474C21.6558 17.2048 21.9049 16.4621 21.9049 15.3481C21.9049 14.925 21.9229 14.6091 21.9452 14.2172V14.2171C21.9816 13.5771 22.0295 12.7346 22.0295 10.8922V10.8921C22.0295 7.9216 22.0295 7.55027 21.9049 6.43631C21.9049 5.32233 21.6558 4.45591 21.4066 3.83703C21.1574 3.09438 20.7836 2.4755 20.1607 1.85663C19.5377 1.23775 18.9148 0.866426 18.1673 0.618876C17.4197 0.371326 16.6722 0.123776 15.5509 0.123776C14.4296 0 14.0558 0 11.0657 0ZM11.0655 5.32227C7.95078 5.32227 5.45898 7.79777 5.45898 10.8922C5.45898 13.9865 7.95078 16.462 11.0655 16.462C14.1803 16.462 16.6721 13.9865 16.6721 10.8922C16.6721 7.79777 14.1803 5.32227 11.0655 5.32227ZM11.0655 14.4816C9.07208 14.4816 7.45242 12.8726 7.45242 10.8922C7.45242 8.91175 9.07208 7.30267 11.0655 7.30267C13.059 7.30267 14.6786 8.91175 14.6786 10.8922C14.6786 12.8726 13.059 14.4816 11.0655 14.4816ZM16.797 6.43595C17.5445 6.43595 18.1674 5.81707 18.1674 5.07442C18.1674 4.33177 17.5445 3.83667 16.797 3.71289C16.0495 3.71289 15.4265 4.33177 15.4265 5.07442C15.4265 5.81707 16.0495 6.43595 16.797 6.43595Z" fill="white"/>
</svg>
