<svg width="24" height="19" viewBox="0 0 24 19" fill="none" xmlns="http://www.w3.org/2000/svg">
<path d="M0 16.2998C2.04693 17.6359 4.6397 18.4375 7.36894 18.4375C16.239 18.4375 21.2881 11.0892 20.8787 4.54258C21.8339 3.87455 22.6527 3.07292 23.1985 2.13768C22.3798 2.5385 21.4245 2.80571 20.4693 2.93931C21.4245 2.40489 22.2433 1.46966 22.5162 0.400815C21.561 0.935235 20.6057 1.33605 19.5141 1.46966C18.6953 0.534419 17.4671 0 15.966 0C12.8274 0 10.644 2.80571 11.3263 5.74502C7.36894 5.61142 3.82093 3.74094 1.50108 0.801629C0.272924 2.93931 0.818772 5.61142 3.00216 7.08107C2.18339 7.08107 1.50108 6.81387 0.818772 6.54665C0.818772 8.68434 2.31985 10.6884 4.6397 11.2228C3.95739 11.3564 3.27508 11.49 2.45631 11.3564C3.00216 13.2269 4.77617 14.563 6.95956 14.563C5.04909 15.899 2.45631 16.567 0 16.2998Z" fill="white"/>
</svg>
