<svg width="48" height="48" viewBox="0 0 48 48" fill="none" xmlns="http://www.w3.org/2000/svg">
<path d="M23.9143 0C10.7143 0 0 10.7334 0 23.9569C0 30.998 3 37.2662 7.8 41.6454C12.0857 45.5953 17.7429 47.9137 24 47.9137C30.2571 47.9137 35.9143 45.5095 40.2 41.6454C45 37.2662 48 30.998 48 23.9569C47.9143 10.7334 37.2 0 23.9143 0Z" fill="#92A1CB"/>
<path d="M40.1151 41.6462C39.8579 41.5603 39.6865 41.4745 39.5151 41.3027C38.5722 40.8734 37.5436 40.6158 36.6008 40.1006C36.2579 40.0147 36.0008 40.0147 35.7436 39.6713C35.5722 39.5854 35.4008 39.4995 35.3151 39.4995C34.8008 39.4137 34.4579 39.1561 34.1151 38.7267C33.9436 38.6409 33.7722 38.4691 33.6008 38.3833C33.3436 38.2974 33.2579 38.1256 33.1722 37.868C33.0865 37.5246 33.0008 37.1811 32.9151 36.8376C32.8294 36.4942 32.7436 36.1507 32.7436 35.8072C32.7436 35.6355 32.6579 35.4638 32.4008 35.3779C32.2294 35.292 31.9722 35.3779 31.8008 35.3779C31.3722 35.4638 31.2008 35.3779 31.1151 34.9486C31.0294 34.6051 30.9436 34.3475 30.9436 34.004C30.9436 33.3171 30.7722 32.6302 31.4579 32.115C32.2294 30.5694 32.7436 28.9379 33.2579 27.3064C33.3436 26.9629 33.5151 26.6195 34.0294 26.6195C34.2865 26.6195 34.5436 26.3619 34.6294 26.1043C34.8865 25.1597 35.2294 24.1293 35.6579 23.2707C35.8294 22.5837 36.0865 21.9827 36.1722 21.2957C36.1722 21.124 36.1722 21.0381 36.1722 20.8664C36.1722 20.7805 36.1722 20.7805 36.0865 20.6947C36.0865 20.6947 36.0008 20.6947 36.0008 20.6088C36.0008 20.3512 36.0008 20.0077 36.0008 19.7501C36.0008 19.3208 35.8293 18.9773 35.4008 18.8915C35.0579 18.8056 34.9722 18.548 34.9722 18.2904C35.0579 17.0024 35.1436 15.7144 35.2293 14.3405C35.2293 14.2547 35.2293 14.2547 35.2293 14.2547V14.1688C35.2293 13.7394 35.1436 13.396 35.1436 12.9666C35.0579 12.0221 34.9722 11.0776 34.4579 10.2189C33.5151 8.58743 32.1436 7.3853 30.5151 6.52663C29.1436 5.83969 27.6008 5.41036 26.0579 5.15276C22.8865 4.46582 19.9722 5.23862 17.4865 7.3853V7.47116C17.1436 7.47116 16.8865 7.72877 16.7151 7.98637C16.4579 8.58743 15.9436 9.01677 15.5151 9.4461C14.6579 10.2189 14.2294 11.1634 14.4008 12.2797C14.4008 12.2797 14.3151 12.2797 14.3151 12.3656C14.3151 12.3656 14.2294 12.4514 14.2294 12.5373C14.0579 13.4818 14.3151 14.4264 14.3151 15.3709C14.5722 16.1437 14.5722 17.0024 14.6579 17.7752C14.6579 18.2045 14.5722 18.548 14.1436 18.6339C13.6294 18.8056 13.3722 19.2349 13.2865 19.7501C13.2008 20.2653 13.2008 20.8664 13.3722 21.3816C13.5436 22.1544 13.8008 22.9272 14.0579 23.7C14.4865 24.3011 14.6579 25.0739 14.8294 25.7608C14.9151 26.276 15.0865 26.5336 15.5151 26.7054C15.8579 26.7912 16.0294 27.0488 16.1151 27.3923C16.2008 27.9934 16.4579 28.5086 16.6294 29.0238C16.8008 29.4531 17.1436 29.8824 17.1436 30.3976C17.1436 30.4835 17.1436 30.4835 17.1436 30.5694C18.0865 32.115 18.6008 33.6606 18.0008 35.4638C17.6579 35.8072 17.4008 35.4638 17.0579 35.4638C16.7151 35.4638 16.4579 35.4638 16.3722 35.8072C16.1151 36.58 16.0294 37.3528 15.7722 38.1256C15.6008 38.555 15.4294 38.8126 15.0008 39.0702C14.1436 39.4995 13.2008 39.9289 12.2579 40.1865C11.6579 40.6158 10.8865 40.7875 10.2008 41.0451C9.42935 41.3027 8.65792 41.5603 7.80078 41.7321C12.0865 45.6819 17.7436 48.0003 24.0008 48.0003C30.1722 48.0003 35.8293 45.5961 40.1151 41.6462Z" fill="#F5F4F9"/>
</svg>
