<svg width="20" height="20" viewBox="0 0 20 20" fill="none" xmlns="http://www.w3.org/2000/svg">
<path fill-rule="evenodd" clip-rule="evenodd" d="M13.9549 15.7182C12.4978 16.8094 10.6885 17.456 8.72789 17.456C3.90774 17.456 0 13.5484 0 8.72798C0 3.90758 3.90774 0 8.72789 0C13.5482 0 17.4558 3.90758 17.4558 8.72798C17.4558 10.6886 16.8094 12.498 15.7182 13.9551L20 18.2369L18.2367 20L13.9549 15.7182ZM14.9621 8.72798C14.9621 12.171 12.1711 14.9623 8.72789 14.9623C5.28487 14.9623 2.49368 12.171 2.49368 8.72798C2.49368 5.28493 5.28487 2.49371 8.72789 2.49371C12.1711 2.49371 14.9621 5.28493 14.9621 8.72798Z" fill="#50618D"/>
</svg>
