<svg width="16" height="16" viewBox="0 0 16 16" fill="none" xmlns="http://www.w3.org/2000/svg">
<path fill-rule="evenodd" clip-rule="evenodd" d="M1.6 1.6C1.6 0.716346 2.31634 0 3.2 0C4.08366 0 4.8 0.716344 4.8 1.6L11.2 1.6C11.2 0.716346 11.9163 0 12.8 0C13.6837 0 14.4 0.716344 14.4 1.6V2.39971C15.3716 3.12947 16 4.29135 16 5.6V12C16 14.2091 14.2091 16 12 16H4C1.79086 16 0 14.2091 0 12V5.6C0 4.29135 0.628443 3.12947 1.6 2.39971V1.6ZM3.6 3.9999C2.49543 3.9999 1.6 4.89533 1.6 5.9999V12.3999C1.6 13.5045 2.49543 14.3999 3.6 14.3999H12.4C13.5046 14.3999 14.4 13.5045 14.4 12.3999V5.9999C14.4 4.89533 13.5046 3.9999 12.4 3.9999H3.6Z" fill="#92A1CB"/>
</svg>
